<svg width="28" height="28" viewBox="0 0 28 28" fill="none" xmlns="http://www.w3.org/2000/svg">
<g clip-path="url(#clip0_208_4980)">
<path d="M1.77771 1.77777L26.2222 26.2222M10.6666 10.6667V14C10.6672 14.6588 10.863 15.3027 11.2293 15.8504C11.5956 16.398 12.116 16.8248 12.7247 17.0768C13.3334 17.3289 14.0032 17.3949 14.6494 17.2665C15.2956 17.1381 15.8893 16.8211 16.3555 16.3555M17.3333 11.0444V5.1111C17.3341 4.28447 17.0277 3.48702 16.4737 2.87355C15.9196 2.26008 15.1574 1.87437 14.3349 1.7913C13.5125 1.70822 12.6885 1.93371 12.0229 2.42398C11.3574 2.91425 10.8978 3.63434 10.7333 4.44444M19.5555 19.5C18.4708 20.6071 17.0801 21.3649 15.5617 21.6762C14.0434 21.9875 12.4666 21.838 11.0338 21.247C9.601 20.6559 8.37744 19.6503 7.52012 18.3591C6.6628 17.0678 6.21081 15.5499 6.22215 14V11.7778M21.7777 11.7778V14C21.7773 14.4583 21.7364 14.9156 21.6555 15.3667M13.9999 21.7778V26.2222M9.55549 26.2222H18.4444" stroke="#641723" stroke-width="1.77778" stroke-linecap="round" stroke-linejoin="round"/>
</g>
<defs>
<clipPath id="clip0_208_4980">
<rect width="26.6667" height="26.6667" fill="white" transform="translate(0.666626 0.666626)"/>
</clipPath>
</defs>
</svg>
