<svg width="12" height="13" viewBox="0 0 12 13" fill="none" xmlns="http://www.w3.org/2000/svg">
<g clip-path="url(#clip0_208_4968)">
<path d="M7.99988 8.5V9C7.99988 9.26522 7.89452 9.51957 7.70699 9.70711C7.51945 9.89464 7.2651 10 6.99988 10H1.49988C1.23466 10 0.980308 9.89464 0.792771 9.70711C0.605235 9.51957 0.499878 9.26522 0.499878 9V4C0.499878 3.73478 0.605235 3.48043 0.792771 3.29289C0.980308 3.10536 1.23466 3 1.49988 3H2.49988M5.32988 3H6.99988C7.2651 3 7.51945 3.10536 7.70699 3.29289C7.89452 3.48043 7.99988 3.73478 7.99988 4V5.67L8.49988 6.17L11.4999 4V9M0.499878 1L11.4999 12" stroke="#CE2C31" stroke-width="0.917404" stroke-linecap="round" stroke-linejoin="round"/>
</g>
<defs>
<clipPath id="clip0_208_4968">
<rect width="12" height="12" fill="white" transform="translate(0 0.5)"/>
</clipPath>
</defs>
</svg>
