<svg width="48" height="48" viewBox="0 0 48 48" fill="none" xmlns="http://www.w3.org/2000/svg">
<rect x="0.5" y="0.505951" width="47" height="47" rx="23.5" fill="#84132F"/>
<rect x="0.5" y="0.505951" width="47" height="47" rx="23.5" stroke="white"/>
<g clip-path="url(#clip0_2_140)">
<mask id="mask0_2_140" style="mask-type:luminance" maskUnits="userSpaceOnUse" x="12" y="12" width="24" height="24">
<path d="M35.4291 12.5777H12.5717V35.4351H35.4291V12.5777Z" fill="white"/>
</mask>
<g mask="url(#mask0_2_140)">
<path d="M13.524 13.53L34.476 34.482M21.1431 21.1491V24.006C21.1441 24.5704 21.3123 25.1218 21.6263 25.5908C21.9403 26.0598 22.3862 26.4253 22.9077 26.6412C23.4291 26.8571 24.0029 26.9137 24.5565 26.804C25.1101 26.6943 25.6189 26.423 26.0186 26.0245M26.8568 21.4731V16.386C26.8562 15.6782 26.593 14.9959 26.1182 14.4711C25.6433 13.9463 24.9906 13.6164 24.2865 13.5452C23.5823 13.4741 22.8768 13.6667 22.3066 14.0859C21.7363 14.5051 21.3419 15.1209 21.1997 15.8142M28.7614 28.7202C27.8316 29.669 26.6396 30.3184 25.3382 30.5851C24.0369 30.8518 22.6855 30.7236 21.4575 30.217C20.2295 29.7105 19.1808 28.8486 18.4459 27.7419C17.7111 26.6353 17.3236 25.3343 17.3331 24.006V22.1014M30.6668 22.1014V24.006C30.6663 24.3997 30.6314 24.7902 30.5623 25.1777M24 30.672V34.482M20.19 34.482H27.81" stroke="white" stroke-width="1.77" stroke-linecap="round" stroke-linejoin="round"/>
</g>
</g>
<path d="M6.34091 0.00595093C5.59775 0.00595092 4.86187 0.157618 4.17527 0.452294C3.48868 0.746969 2.86483 1.17888 2.33933 1.72337C1.81384 2.26786 1.39699 2.91426 1.1126 3.62567C0.8282 4.33708 0.681824 5.09956 0.681824 5.86959C0.681824 6.63961 0.8282 7.4021 1.1126 8.1135C1.39699 8.82491 1.81384 9.47132 2.33933 10.0158C2.86483 10.5603 3.48868 10.9922 4.17527 11.2869C4.86187 11.5816 5.59775 11.7332 6.34092 11.7332L6.34091 5.86959L6.34091 0.00595093Z" fill="#53B9AB"/>
<path d="M6.27274 0.00595093C7.00695 0.00595092 7.73397 0.14351 8.41229 0.410773C9.09061 0.678037 9.70694 1.06977 10.2261 1.56361C10.7453 2.05745 11.1571 2.64372 11.4381 3.28895C11.719 3.93418 11.8636 4.62574 11.8636 5.32413L6.27274 5.32413L6.27274 0.00595093Z" fill="#D9D9D9" fill-opacity="0.5"/>
<path d="M6.27274 0.00595093C7.00695 0.00595092 7.73397 0.14351 8.41229 0.410773C9.09061 0.678037 9.70694 1.06977 10.2261 1.56361C10.7453 2.05745 11.1571 2.64372 11.4381 3.28895C11.719 3.93418 11.8636 4.62574 11.8636 5.32413L6.27274 5.32413L6.27274 0.00595093Z" fill="#EA9455"/>
<path d="M6.54543 6.55141C7.26173 6.55141 7.97102 6.70307 8.63279 6.99775C9.29457 7.29243 9.89587 7.72434 10.4024 8.26883C10.9089 8.81332 11.3107 9.45972 11.5848 10.1711C11.8589 10.8825 12 11.645 12 12.415C12 13.1851 11.8589 13.9476 11.5848 14.659C11.3107 15.3704 10.9089 16.0168 10.4024 16.5613C9.89587 17.1058 9.29457 17.5377 8.63279 17.8323C7.97101 18.127 7.26173 18.2787 6.54543 18.2787L6.54543 12.415L6.54543 6.55141Z" fill="#53B9AB"/>
<circle cx="3.27273" cy="13.3696" r="3.27273" fill="white"/>
<circle cx="4.29543" cy="3.07413" r="0.954545" fill="white"/>
<path d="M6.27271 13.3696V0.278669C6.81816 0.258215 8.38634 0.278669 9.88634 1.57412C11.3863 2.86958 11.5909 4.6423 11.5909 5.32412" stroke="white" stroke-width="0.55"/>
<defs>
<clipPath id="clip0_2_140">
<rect width="24" height="24" fill="white" transform="translate(12 12.006)"/>
</clipPath>
</defs>
</svg>
