<svg width="48" height="48" viewBox="0 0 48 48" fill="none" xmlns="http://www.w3.org/2000/svg">
<rect x="0.5" y="0.505951" width="47" height="47" rx="23.5" fill="#138473"/>
<rect x="0.5" y="0.505951" width="47" height="47" rx="23.5" stroke="white"/>
<path d="M30.72 22.006V24.006C30.72 25.8625 30.012 27.6429 28.7518 28.9557C27.4915 30.2685 25.7823 31.006 24 31.006M24 31.006C22.2178 31.006 20.5085 30.2685 19.2483 28.9557C17.988 27.6429 17.28 25.8625 17.28 24.006V22.006M24 31.006V35.006M20.16 35.006H27.84M24 13.006C23.2362 13.006 22.5037 13.322 21.9636 13.8846C21.4235 14.4472 21.12 15.2103 21.12 16.006V24.006C21.12 24.8016 21.4235 25.5647 21.9636 26.1273C22.5037 26.6899 23.2362 27.0059 24 27.0059C24.7639 27.0059 25.4964 26.6899 26.0365 26.1273C26.5766 25.5647 26.88 24.8016 26.88 24.006V16.006C26.88 15.2103 26.5766 14.4472 26.0365 13.8846C25.4964 13.322 24.7639 13.006 24 13.006Z" stroke="white" stroke-width="1.77" stroke-linecap="round" stroke-linejoin="round"/>
<path d="M6.34091 0.00595093C5.59775 0.00595092 4.86187 0.157618 4.17527 0.452294C3.48868 0.746969 2.86483 1.17888 2.33933 1.72337C1.81384 2.26786 1.39699 2.91426 1.1126 3.62567C0.8282 4.33708 0.681824 5.09956 0.681824 5.86959C0.681824 6.63961 0.8282 7.4021 1.1126 8.1135C1.39699 8.82491 1.81384 9.47132 2.33933 10.0158C2.86483 10.5603 3.48868 10.9922 4.17527 11.2869C4.86187 11.5816 5.59775 11.7332 6.34092 11.7332L6.34091 5.86959L6.34091 0.00595093Z" fill="#53B9AB"/>
<path d="M6.27274 0.00595093C7.00695 0.00595092 7.73397 0.14351 8.41229 0.410773C9.09061 0.678037 9.70694 1.06977 10.2261 1.56361C10.7453 2.05745 11.1571 2.64372 11.4381 3.28895C11.719 3.93418 11.8636 4.62574 11.8636 5.32413L6.27274 5.32413L6.27274 0.00595093Z" fill="#D9D9D9" fill-opacity="0.5"/>
<path d="M6.27274 0.00595093C7.00695 0.00595092 7.73397 0.14351 8.41229 0.410773C9.09061 0.678037 9.70694 1.06977 10.2261 1.56361C10.7453 2.05745 11.1571 2.64372 11.4381 3.28895C11.719 3.93418 11.8636 4.62574 11.8636 5.32413L6.27274 5.32413L6.27274 0.00595093Z" fill="#EA9455"/>
<path d="M6.54543 6.55141C7.26173 6.55141 7.97102 6.70307 8.63279 6.99775C9.29457 7.29243 9.89587 7.72434 10.4024 8.26883C10.9089 8.81332 11.3107 9.45972 11.5848 10.1711C11.8589 10.8825 12 11.645 12 12.415C12 13.1851 11.8589 13.9476 11.5848 14.659C11.3107 15.3704 10.9089 16.0168 10.4024 16.5613C9.89587 17.1058 9.29457 17.5377 8.63279 17.8323C7.97101 18.127 7.26173 18.2787 6.54543 18.2787L6.54543 12.415L6.54543 6.55141Z" fill="#53B9AB"/>
<circle cx="3.27273" cy="13.3696" r="3.27273" fill="white"/>
<circle cx="4.29543" cy="3.07413" r="0.954545" fill="white"/>
<path d="M6.27271 13.3696V0.278669C6.81816 0.258215 8.38634 0.278669 9.88634 1.57412C11.3863 2.86958 11.5909 4.6423 11.5909 5.32412" stroke="white" stroke-width="0.55"/>
</svg>
